<svg version="1.1" id="Layer_1" xmlns="http://www.w3.org/2000/svg" xmlns:xlink="http://www.w3.org/1999/xlink" x="0px"
     y="0px"
     width="100%" viewBox="0 0 528 528" enable-background="new 0 0 528 528" xml:space="preserve">
<rect x="0" y="0" width="528" height="528" rx="64" ry="64" fill="#FFFFFF"/>
    <g transform="translate(7,7) scale(0.95)">
<path fill="#000000" opacity="1.000000" stroke="none"
      d="
M251.468658,529.000000 
	C239.200302,527.090942 227.291458,525.948853 215.574158,523.428650 
	C153.633118,510.106171 103.470398,478.072083 64.364861,428.455719 
	C35.430569,391.744415 17.976585,350.004028 12.066076,303.795319 
	C4.788901,246.901871 14.963670,193.105347 43.521614,143.050629 
	C48.401131,134.498108 53.793194,126.297508 59.611477,118.368828 
	C61.263687,116.117317 62.841393,113.762634 65.108444,112.098618 
	C71.063095,117.308525 71.345657,118.462524 68.448807,124.898277 
	C63.698444,135.451874 60.749817,146.509094 59.368725,157.979080 
	C59.099571,160.214386 58.174137,162.105362 57.201790,164.035980 
	C42.093327,194.033997 33.496632,225.791519 32.119377,259.357574 
	C29.449190,324.434570 50.390682,381.102753 94.000320,429.270844 
	C129.600342,468.592041 173.788635,493.019196 225.797592,503.332031 
	C240.052689,506.158691 254.529037,506.705505 268.980804,507.516754 
	C270.833466,507.620758 272.267456,507.060150 273.195404,505.452148 
	C281.908875,490.352783 293.320312,477.288483 304.420471,463.987671 
	C304.592896,463.781067 304.563354,463.405914 304.785126,462.389557 
	C288.451477,472.767792 276.227051,486.564606 264.689880,501.399139 
	C263.095459,495.311584 263.238647,489.445404 264.216309,483.644867 
	C267.655701,463.238617 279.905701,449.591949 297.870819,440.493103 
	C308.988922,434.862152 320.968811,432.089264 333.179016,430.119934 
	C335.523743,429.741760 337.159698,430.097870 337.258240,432.914948 
	C338.001892,454.178955 331.022095,486.759521 303.799805,501.015533 
	C300.903290,502.532410 297.878998,503.805298 294.974976,505.461609 
	C304.224670,504.880402 313.364380,503.427368 322.299530,501.181915 
	C393.171387,483.371490 445.981537,442.117126 480.197327,377.662048 
	C495.661255,348.531311 504.091858,317.156250 505.912170,284.035492 
	C508.143250,243.440018 500.463135,204.880066 482.841858,168.350342 
	C479.571259,161.570312 478.525909,154.440979 476.860870,147.362289 
	C475.142181,140.055710 473.482391,132.695847 469.878021,126.073380 
	C466.813324,120.442444 468.041199,116.000946 472.347900,111.925079 
	C473.898895,111.724739 474.398956,112.934616 475.076019,113.819664 
	C502.031708,149.055954 519.197205,188.507324 525.336365,232.494476 
	C533.904297,293.882904 523.194946,351.766052 490.348358,404.486267 
	C449.465729,470.104614 390.582764,510.496613 314.412292,525.048706 
	C305.287109,526.792053 295.958374,527.469849 286.362000,528.820801 
	C274.645782,529.000000 263.291534,529.000000 251.468658,529.000000 
z"/>
        <path fill="#000000" opacity="1.000000" stroke="none"
              d="
M104.172623,313.316864 
	C101.212029,313.541779 98.719711,313.687897 96.247490,313.995544 
	C92.865646,314.416351 89.912926,313.669373 89.451546,309.929352 
	C88.954704,305.902008 92.164558,305.074036 95.326248,304.739471 
	C102.451836,303.985474 109.587105,303.513489 116.768051,303.720123 
	C122.563980,303.886932 123.594040,302.864777 123.629189,297.237000 
	C123.665611,291.405457 123.538567,285.570984 124.646561,279.807007 
	C125.250542,276.664978 124.154854,274.428009 121.487419,272.603577 
	C91.811325,252.305923 75.577858,223.577820 70.123047,188.625412 
	C66.680901,166.569489 69.984146,145.112961 79.930420,125.015350 
	C82.223099,120.382721 82.451897,116.922401 79.289345,112.837143 
	C77.420761,110.423393 75.429161,107.871643 74.554260,104.436646 
	C82.262917,102.028313 90.134048,103.042801 97.387756,102.142662 
	C98.709885,99.087189 95.426453,97.869766 96.172012,94.929977 
	C103.312111,94.875786 110.459839,95.753906 117.558167,97.198639 
	C140.676834,101.904007 159.214813,114.318115 174.897186,131.451859 
	C179.506073,136.487259 184.258698,141.471161 187.724442,147.386993 
	C189.801361,150.932220 191.647354,151.318497 195.160675,149.123871 
	C206.105865,142.286850 217.980484,137.547485 230.451935,134.175308 
	C234.617493,133.048981 236.768936,133.593811 238.122131,138.128571 
	C242.132416,151.567734 244.865372,165.222488 246.148865,179.169189 
	C246.404968,181.951981 246.185852,184.778534 246.185852,188.753525 
	C211.610535,174.369858 185.215683,186.493835 163.453217,213.964981 
	C164.127747,204.583130 167.333847,196.398346 170.329559,188.180725 
	C172.671875,181.755432 175.699860,175.612961 179.194794,169.735565 
	C180.542480,167.469177 180.718002,165.496826 179.355881,163.243683 
	C166.804794,142.482513 149.942032,126.361565 128.135864,115.547150 
	C127.694534,115.328270 127.192307,115.204811 126.704094,115.115677 
	C126.228790,115.028893 125.734970,115.043564 124.829208,114.987854 
	C124.912910,118.825371 128.673386,121.179153 128.837875,125.494362 
	C119.445122,121.494873 110.940285,116.101044 100.506409,116.593163 
	C113.220810,127.304222 126.064156,137.711075 134.848663,153.079849 
	C127.541962,152.642120 121.615227,148.659286 114.636711,150.367355 
	C125.474464,158.524536 136.890808,165.855545 146.001770,178.252090 
	C137.602249,176.648605 130.919937,173.203522 122.216576,174.536057 
	C133.015640,182.387527 144.034134,188.539902 151.444382,199.862259 
	C144.514420,199.814606 138.764740,196.007065 131.529999,197.709579 
	C140.043243,204.175720 146.298904,211.492447 150.557007,221.818359 
	C144.637192,220.324707 139.897247,217.800690 133.988281,217.896957 
	C138.832382,225.518372 142.793152,233.235138 142.695496,243.254456 
	C123.505867,240.729691 108.836243,231.053192 95.581688,217.650009 
	C96.650299,220.017746 97.632217,222.429718 98.811607,224.740921 
	C100.021751,227.112366 101.319084,229.453552 102.760941,231.690201 
	C111.774643,245.672531 123.232063,257.089325 138.165283,264.690887 
	C141.336960,266.305389 142.482162,268.039459 141.575165,271.738525 
	C139.302979,281.005371 139.148468,290.501404 139.190308,300.016418 
	C139.209076,304.284332 140.559021,306.237610 145.019196,306.885040 
	C151.418823,307.813995 157.712830,309.523193 164.013763,311.056122 
	C166.911575,311.761047 169.717026,313.178680 168.834091,316.803986 
	C167.907440,320.608826 164.838547,320.704529 161.602997,319.907104 
	C157.243347,318.832642 152.873657,317.796844 148.495651,316.799744 
	C145.962784,316.222870 142.811218,315.729218 142.831787,319.341980 
	C142.848984,322.364288 142.949600,326.567841 147.692825,326.746460 
	C153.016754,326.946960 158.356216,326.696411 163.687195,326.768402 
	C165.667725,326.795166 167.703140,326.954193 169.606140,327.458282 
	C171.961380,328.082153 173.248550,329.933350 172.965698,332.363098 
	C172.681091,334.807983 171.046005,336.210541 168.529678,336.255798 
	C165.031769,336.318695 161.526245,336.146484 158.034607,336.306641 
	C155.586197,336.418915 152.124557,335.481812 151.957672,339.462982 
	C151.826782,342.585083 156.661591,346.198944 159.759781,345.565277 
	C164.319977,344.632568 168.845474,343.513733 173.354706,342.353577 
	C176.831741,341.459015 180.136322,341.675903 180.872192,345.688690 
	C181.540588,349.333679 178.625565,350.576874 175.409698,351.496307 
	C172.049438,352.457031 166.759521,351.530731 165.954422,355.460327 
	C165.283752,358.733795 169.892120,360.791443 172.544968,362.909821 
	C184.936371,372.804688 198.264648,381.321777 212.011215,389.198425 
	C212.995956,389.762665 213.942596,390.393402 215.628220,391.441833 
	C193.879654,414.051331 180.620102,440.443909 178.399963,471.322510 
	C176.061569,471.892700 174.900803,471.164490 173.707047,470.598846 
	C158.120041,463.213104 143.806061,453.838165 130.293213,443.148712 
	C126.878433,440.447388 126.193237,437.791382 127.690369,433.702911 
	C134.794159,414.303131 144.396469,396.326782 157.281509,380.141022 
	C161.824982,374.433624 161.808350,374.442505 156.132050,369.501312 
	C154.878372,368.409973 153.641235,367.272339 152.558716,366.016205 
	C146.441315,358.917572 147.401688,359.280579 138.893372,362.992798 
	C130.778961,366.533081 123.091698,370.863068 115.604469,375.553375 
	C112.974312,377.201019 110.279434,378.334656 108.115921,375.348572 
	C105.698761,372.012329 108.126030,369.825348 110.647652,367.918732 
	C117.879501,362.450684 126.073349,358.706085 134.177368,354.799042 
	C139.654587,352.158356 140.095871,350.787048 137.018188,345.637787 
	C131.429276,336.287048 133.992783,338.034637 123.421608,339.704773 
	C115.863350,340.898926 108.504791,343.143311 101.250313,345.617310 
	C97.984863,346.730957 94.737076,347.340912 93.404655,343.214783 
	C92.121635,339.241638 95.413200,337.929932 98.234245,336.941620 
	C105.935516,334.243530 113.819664,332.173889 121.804512,330.455200 
	C128.188538,329.081085 128.611801,328.230499 127.040749,321.926483 
	C124.905464,313.358398 124.905540,313.345978 116.147003,313.288605 
	C112.314835,313.263489 108.482254,313.300964 104.172623,313.316864 
z"/>
        <path fill="#000000" opacity="1.000000" stroke="none"
              d="
M402.411377,343.340088 
	C397.500214,351.788330 397.494324,351.800995 406.052246,355.779541 
	C413.467041,359.226562 420.659912,363.068329 427.394043,367.724823 
	C429.950623,369.492615 432.637451,371.511810 430.426758,375.005157 
	C428.106689,378.671417 425.139404,377.258514 422.229034,375.408630 
	C413.782471,370.039734 405.014679,365.271698 395.801208,361.318878 
	C392.577026,359.935669 390.230896,360.332764 387.958099,363.188690 
	C385.901276,365.773285 383.503082,368.184174 380.896606,370.210052 
	C377.135040,373.133759 377.167297,375.727692 380.086121,379.350677 
	C393.151825,395.568176 403.249878,413.451904 410.229919,433.142334 
	C411.907532,437.874725 411.120728,440.624084 407.217468,443.666901 
	C394.158600,453.846832 380.276276,462.665039 365.532166,470.153992 
	C364.095673,470.883606 362.515564,471.330414 360.062988,472.267242 
	C357.323273,440.720642 344.554962,414.246582 322.567932,391.505798 
	C329.252045,387.447418 335.368011,383.896240 341.317413,380.085083 
	C351.136292,373.795227 361.004425,367.547577 369.572144,359.537415 
	C370.860504,358.332825 372.901825,357.221130 372.435059,355.175140 
	C371.898041,352.821106 369.344055,352.977905 367.518250,352.443085 
	C365.290985,351.790741 362.902039,351.647339 360.723175,350.883850 
	C358.089233,349.960938 356.546509,347.923523 357.402496,345.038483 
	C358.179108,342.421265 360.349274,341.462952 362.944183,341.975830 
	C367.022003,342.781921 371.064392,343.768768 375.117462,344.697998 
	C382.571869,346.407013 384.468842,345.243866 386.783539,337.336884 
	C383.218842,335.376068 379.328613,336.602112 375.615387,336.315155 
	C373.627014,336.161438 371.612640,336.354736 369.621979,336.217560 
	C366.937195,336.032532 365.198975,334.556061 365.114929,331.815277 
	C365.037201,329.281342 366.655151,327.906189 369.055511,327.408691 
	C375.498840,326.073181 382.012878,326.761932 388.486755,326.904419 
	C392.141327,326.984863 394.008728,325.562775 394.948395,322.145294 
	C396.086365,318.006470 394.542023,315.868469 390.327087,316.616547 
	C386.076324,317.370972 381.877930,318.460999 377.698151,319.561829 
	C374.269073,320.464905 370.673889,321.271790 369.539154,316.775208 
	C368.362396,312.112061 372.383728,311.505310 375.547241,310.557678 
	C381.456177,308.787689 387.479431,307.455017 393.595734,306.744476 
	C397.295197,306.314758 398.820190,304.630249 398.864258,300.943237 
	C398.977875,291.436432 399.120880,281.909424 396.731506,272.640564 
	C395.672150,268.530975 396.677399,266.438629 400.466125,264.411194 
	C417.066589,255.527878 429.791626,242.635010 438.633636,225.983124 
	C439.531525,224.292145 440.953674,222.690872 440.253387,219.409042 
	C427.477386,231.578842 413.598114,240.782639 395.501312,243.147873 
	C395.258240,233.475006 399.252960,225.654037 404.365173,217.953659 
	C398.596649,217.302979 393.996094,220.128494 387.996674,221.288620 
	C391.392029,211.198227 398.318115,204.709732 405.925720,197.843216 
	C398.841614,196.201859 393.525635,199.578842 387.810303,199.934982 
	C388.710327,195.697617 388.756378,195.751114 400.263062,185.849152 
	C405.041382,181.737183 410.617096,178.726807 416.675415,174.192062 
	C407.859314,173.114136 400.986633,176.504761 392.626007,177.851608 
	C401.058105,165.826355 412.228363,158.694122 424.300934,150.584793 
	C416.464966,148.687210 410.712128,152.582809 403.480988,153.020569 
	C412.351685,137.173035 425.382446,126.610886 440.084351,115.731308 
	C428.469421,116.389305 419.440826,120.650146 410.127930,125.302895 
	C409.496185,120.776733 413.572968,118.611290 414.075653,115.163292 
	C412.339783,113.696999 411.068787,115.058784 409.879120,115.643501 
	C388.186523,126.305038 371.515594,142.395538 358.846222,162.846298 
	C357.275360,165.381958 357.650787,167.382843 359.055237,169.741348 
	C366.535309,182.302811 371.414429,195.886841 374.652161,210.096725 
	C374.936615,211.345093 375.757996,212.596024 374.252197,214.359131 
	C353.171173,186.804352 327.037109,174.483368 292.534180,188.589920 
	C290.408936,182.192154 292.359955,176.293198 292.963348,170.558014 
	C294.110779,159.652359 296.534882,148.945084 299.984772,138.461960 
	C301.442383,134.032669 303.285156,132.846710 307.873322,134.137161 
	C319.651917,137.449982 330.813904,142.096558 341.487732,148.022507 
	C347.657593,151.447906 347.625092,151.351196 351.635681,145.705048 
	C365.839386,125.708694 383.493469,109.925484 406.733246,101.112038 
	C417.870728,96.888237 429.468597,95.156227 441.325165,94.954651 
	C442.370087,98.090103 438.950165,99.068207 438.928162,102.425934 
	C446.896820,103.057610 455.216431,101.877106 463.738342,104.466759 
	C462.178192,108.592857 459.453064,111.917122 457.196106,115.457298 
	C455.819489,117.616577 455.532440,119.339897 456.755249,121.848175 
	C475.188934,159.661072 472.565704,196.843765 452.822968,233.287674 
	C444.185883,249.231232 432.221771,262.318024 417.039520,272.316162 
	C414.186157,274.195221 412.715363,276.365845 413.437225,279.750885 
	C414.737244,285.847290 414.554688,292.035431 414.283752,298.175110 
	C414.094269,302.469513 415.301025,304.270996 419.860443,303.920685 
	C427.345215,303.345581 434.837250,303.859497 442.305756,304.643829 
	C445.689209,304.999146 449.122589,305.750854 448.714386,309.910492 
	C448.315979,313.970551 444.982544,314.407074 441.472260,313.907959 
	C433.349670,312.753052 425.174133,313.451080 417.021332,313.335876 
	C414.276154,313.297119 412.959686,314.559753 412.186768,317.286133 
	C408.959473,328.670227 408.901001,328.496094 420.188049,331.231110 
	C426.811615,332.836060 433.334595,334.890472 439.833008,336.961792 
	C442.715149,337.880493 446.017212,339.336884 444.777344,343.175415 
	C443.497589,347.137543 440.125763,346.650635 436.836731,345.593750 
	C428.279327,342.843994 419.605042,340.615814 410.750946,338.933228 
	C406.460938,338.117950 404.022888,339.074921 402.411377,343.340088 
z"/>
        <path fill="#000000" opacity="1.000000" stroke="none"
              d="
M145.324860,68.366974 
	C137.397278,73.355598 130.123032,78.643570 122.997665,84.140312 
	C121.396652,85.375381 119.814148,86.618973 117.610298,86.310257 
	C108.900291,85.090187 100.147713,84.340630 91.040085,83.611794 
	C110.529610,64.067276 132.776123,48.562553 157.616272,36.660629 
	C182.456635,24.758615 208.556244,16.924782 235.867233,13.853102 
	C316.957977,4.732785 387.635742,27.683756 447.510742,83.941811 
	C440.984436,83.732903 434.531219,84.021706 428.465240,85.517792 
	C420.254852,87.542770 414.762482,83.977127 408.687958,79.419815 
	C375.750977,54.709427 338.738098,40.002804 297.807861,35.138790 
	C243.268173,28.657480 192.564301,39.689548 145.324860,68.366974 
z"/>
        <path fill="#000000" opacity="1.000000" stroke="none"
              d="
M248.899734,308.900757 
	C252.562897,304.292511 255.314957,299.530884 257.625366,294.533722 
	C259.846771,289.728973 264.028412,288.355988 268.681335,288.242157 
	C273.527008,288.123596 278.006226,289.300446 280.304962,294.329956 
	C286.759766,308.452667 297.299744,318.807587 310.233612,327.027008 
	C318.024506,331.978119 324.162842,338.298248 326.708130,347.570862 
	C330.018188,359.629639 325.978180,372.802612 315.661407,379.911194 
	C307.484802,385.545105 299.078827,390.855164 290.844788,396.421143 
	C275.689667,406.665588 253.206909,403.662506 240.102783,390.946289 
	C237.142853,388.073975 233.610535,386.369324 230.009048,384.633789 
	C221.414429,380.492126 214.735580,374.415405 211.801941,365.107025 
	C207.722580,352.163330 211.211395,341.079102 221.194199,332.178162 
	C225.273300,328.541138 229.998734,325.622375 234.472473,322.436279 
	C239.798752,318.643036 244.515732,314.210388 248.899734,308.900757 
M259.625488,378.413635 
	C265.577148,375.471588 271.191437,375.682190 277.667816,377.962341 
	C289.219971,382.029572 302.240448,377.013245 308.005737,367.587189 
	C309.156403,365.705902 310.661438,363.706146 308.694977,361.540253 
	C306.831482,361.528778 305.885040,362.575745 305.233826,363.696136 
	C298.878540,374.630402 282.798340,375.794708 273.195496,370.280762 
	C270.459167,368.709534 268.249908,368.825714 265.352966,370.210632 
	C253.397980,375.925873 241.850327,374.082733 234.656479,365.902710 
	C233.183121,364.227386 231.865158,360.171844 229.338715,362.198059 
	C226.532257,364.449036 229.837646,367.252808 231.328873,369.438568 
	C233.124954,372.071228 235.685791,373.949524 238.446335,375.587494 
	C244.836273,379.378906 251.729553,379.435272 259.625488,378.413635 
M259.784576,327.970367 
	C258.099609,328.695465 255.950317,329.411072 256.047668,331.464294 
	C256.159027,333.813721 258.553101,334.304871 260.453949,334.795288 
	C266.502411,336.355774 272.572876,336.293060 278.579346,334.587677 
	C280.335815,334.089020 282.252106,333.243439 282.119690,331.021027 
	C282.002808,329.059113 280.060028,328.582855 278.535248,328.039612 
	C272.571198,325.914764 266.538666,325.942322 259.784576,327.970367 
M250.739395,343.983032 
	C249.437973,342.789886 248.136566,341.596741 246.414200,340.017700 
	C246.169662,347.090729 249.651413,351.157562 254.877426,354.134979 
	C256.012390,354.781677 257.309387,355.684448 258.508514,354.452423 
	C259.651611,353.278015 259.625397,351.804810 259.039825,350.255371 
	C257.684021,346.667816 254.234177,345.895203 250.739395,343.983032 
M291.170074,344.959167 
	C291.484955,343.755280 292.246399,342.514282 290.722351,341.230560 
	C288.542816,343.253906 286.098145,344.839508 283.340759,345.979797 
	C281.486267,346.746704 280.063751,348.155762 279.153503,350.024323 
	C278.462830,351.442169 278.099548,352.814178 279.231903,354.175049 
	C280.531830,355.737366 281.954346,354.916382 283.247711,354.258362 
	C286.924500,352.387848 289.582733,349.568268 291.170074,344.959167 
z"/>
        <path fill="#000000" opacity="1.000000" stroke="none"
              d="
M177.229111,226.162598 
	C193.362411,215.017899 211.143646,215.350189 226.721405,226.857635 
	C248.844360,243.200150 256.870697,275.221252 244.690445,298.783600 
	C242.278519,303.449402 239.395752,307.798279 234.650192,311.485657 
	C233.498138,306.916473 237.385773,303.129608 234.758423,299.344513 
	C232.216568,299.297424 230.795242,301.130341 229.085007,302.325409 
	C212.236816,314.098236 190.785721,314.738373 175.422043,303.352142 
	C164.002090,294.888641 159.505386,282.436920 158.988037,268.907501 
	C158.349747,252.215881 163.513229,237.413177 177.229111,226.162598 
M182.560928,273.743774 
	C182.823761,274.704895 183.067474,275.671753 183.352310,276.626312 
	C186.862762,288.390411 199.532272,295.933014 211.519699,293.401062 
	C223.164474,290.941498 231.814102,279.284515 230.599182,267.687927 
	C229.292465,255.215164 218.684769,245.466095 206.563416,245.303116 
	C194.970673,245.147232 180.726425,255.382690 182.560928,273.743774 
z"/>
        <path fill="#000000" opacity="1.000000" stroke="none"
              d="
M355.622070,307.849823 
	C335.837158,315.863617 318.894531,310.034454 303.007568,297.902740 
	C301.231323,302.548828 304.171997,306.430817 303.611938,310.523193 
	C301.400940,310.916687 300.735535,309.099121 299.748413,307.940033 
	C283.640411,289.025909 283.725159,259.226074 299.649445,238.586090 
	C307.359131,228.593323 316.784088,221.307297 329.283112,218.814865 
	C345.986572,215.483978 362.377655,222.911453 371.074982,237.650146 
	C379.430634,251.809753 381.672607,266.888672 376.740112,282.746918 
	C373.274536,293.889069 366.755890,302.588776 355.622070,307.849823 
M315.706207,287.815460 
	C316.790894,288.585144 317.843018,289.406250 318.965363,290.116394 
	C327.546631,295.545959 338.369141,294.951202 346.480988,288.628632 
	C354.472137,282.400085 357.758240,271.708435 354.597076,262.222168 
	C351.333191,252.427795 342.034088,245.314957 332.116730,245.372162 
	C321.600189,245.432831 314.036011,250.522797 309.553741,259.904114 
	C305.126831,269.169464 307.296143,279.009918 315.706207,287.815460 
z"/>
        <path fill="#000000" opacity="1.000000" stroke="none"
              d="
M156.530762,79.455154 
	C242.406311,28.819183 341.749878,46.279266 398.874756,91.639229 
	C393.774261,98.080826 385.330872,99.732300 378.842560,95.624336 
	C349.139862,76.818565 316.818146,66.235336 281.649292,64.149551 
	C236.613907,61.478596 195.218475,72.271545 157.526703,97.041534 
	C154.138702,99.268036 151.337845,99.687881 147.989136,97.357468 
	C145.287796,95.477562 141.907822,94.686165 138.758041,91.697220 
	C144.027740,86.652878 150.410110,83.528725 156.530762,79.455154 
z"/>
        <path fill="#000000" opacity="1.000000" stroke="none"
              d="
M59.721825,343.131409 
	C43.217808,294.832642 43.050564,246.965103 59.675484,198.376694 
	C61.766373,199.904922 61.666553,201.668350 62.330498,203.033356 
	C69.132179,217.017212 66.920815,231.276276 64.268372,245.760284 
	C61.461349,261.088379 62.004047,276.658447 63.566456,292.066040 
	C65.987335,315.939392 72.596596,338.759033 83.136505,360.340881 
	C91.881248,378.246918 102.556656,394.993927 116.472679,409.298553 
	C121.524559,414.491486 123.454315,418.903015 119.624069,425.260986 
	C118.790443,426.644775 118.730095,428.466125 116.624741,430.513000 
	C90.197983,406.335846 71.964294,376.960022 59.721825,343.131409 
z"/>
        <path fill="#000000" opacity="1.000000" stroke="none"
              d="
M442.400177,408.357544 
	C435.583954,416.025787 429.758057,424.167908 421.109558,430.569153 
	C419.233337,425.898438 417.411682,421.839142 415.994568,417.643188 
	C415.239532,415.407715 417.299683,414.028931 418.636658,412.612579 
	C436.910736,393.254547 451.183533,371.343842 460.949921,346.537262 
	C471.830383,318.900879 476.955017,290.359863 475.172638,260.587982 
	C474.474457,248.925385 473.302368,237.380737 470.665649,226.004654 
	C469.998199,223.125031 470.408722,220.559036 471.401764,217.768005 
	C473.608551,211.565414 475.362427,205.201691 477.928894,198.907272 
	C490.923309,234.397278 494.120667,270.670197 487.474518,307.926392 
	C480.846191,345.083008 465.874573,378.414581 442.400177,408.357544 
z"/>
        <path fill="#000000" opacity="1.000000" stroke="none"
              d="
M248.581848,133.538605 
	C248.178513,131.355606 249.257751,130.799179 250.761490,130.627625 
	C263.690491,129.152588 276.589081,129.086502 289.624939,131.027267 
	C289.975006,134.895630 288.222229,137.850922 287.393677,140.980698 
	C283.120026,157.123749 280.424561,173.483597 280.213623,190.216858 
	C280.166565,193.946579 271.909027,202.027039 268.692047,201.607025 
	C264.687286,201.084167 257.900177,193.181488 257.830505,188.847183 
	C257.528900,170.074585 254.305084,151.794495 248.581848,133.538605 
z"/>
        <path fill="#000000" opacity="1.000000" stroke="none"
              d="
M247.671890,496.575623 
	C224.121124,493.261688 213.388519,475.520966 211.676910,455.253601 
	C211.342209,451.290497 213.152359,450.376556 216.742538,450.837616 
	C240.961975,453.948029 254.515137,468.509552 255.785889,492.924591 
	C256.013641,497.300385 254.954926,497.815735 247.671890,496.575623 
z"/>
        <path fill="#000000" opacity="1.000000" stroke="none"
              d="
M217.895721,280.904022 
	C211.296066,286.121582 204.303101,286.850342 198.246048,283.191742 
	C193.395996,280.262207 190.148193,273.340302 191.012375,267.774902 
	C192.132141,260.563568 196.601364,255.806335 203.754990,254.164032 
	C206.786133,253.468155 209.645462,253.735641 212.650848,255.597534 
	C210.498505,258.775085 205.589050,261.612335 210.100098,265.958221 
	C214.336563,270.039642 217.141113,265.973724 219.821304,263.198181 
	C223.797043,268.482513 223.176834,273.868530 217.895721,280.904022 
z"/>
        <path fill="#000000" opacity="1.000000" stroke="none"
              d="
M334.291290,259.480133 
	C332.473938,262.876160 333.399506,265.417999 336.247192,266.981262 
	C340.279663,269.194946 342.082550,265.300079 344.528687,263.390594 
	C348.588196,267.800018 347.994080,274.682068 343.154388,280.362457 
	C338.093079,286.302917 328.441376,287.242889 321.855225,282.436768 
	C315.728790,277.966095 313.938690,268.730530 317.851288,261.779205 
	C321.713654,254.917145 329.783264,252.220322 337.108063,255.381271 
	C337.567932,257.555603 335.141022,257.774048 334.291290,259.480133 
z"/>
</g>
</svg>